<svg xmlns="http://www.w3.org/2000/svg" width="100%" height="100%" xmlns:xlink="http://www.w3.org/1999/xlink" joint-selector="svg" id="v-305" viewBox="0 0 520 640"><defs joint-selector="defs"><marker id="v-2-857093843" orient="auto" overflow="visible" markerUnits="userSpaceOnUse"><path id="v-125" stroke="#666" fill="#666" transform="rotate(180)" d="M 4 -4 0 0 4 4 z"/></marker></defs><g joint-selector="layers" class="joint-layers"><g class="joint-back-layer"/><g class="joint-cells-layer joint-viewport"><g model-id="e0ea425f-e45f-401b-813e-cb331fc063d2" data-type="ast.Node" id="j_73" class="joint-cell joint-type-ast joint-type-ast-node joint-element joint-theme-default" transform="translate(0,0)"><rect id="v-227" rx="5" ry="5" stroke="none" fill="black" width="120" height="30"/><text id="v-228" font-size="10" xml:space="preserve" y="0.8em" fill="white" font-family="'Helvetica Neue Light','Helvetica Neue','Source Sans Pro',sans-serif" letter-spacing="1px" transform="matrix(1,0,0,1,38.4,10.8)"><tspan dy="0" class="v-line">Program</tspan></text><path id="v-229" stroke="#666" d="M 0 0 0 10 M -5 10 5 10" visibility="hidden" pointer-events="none" transform="matrix(1,0,0,1,60,30)"/></g><g model-id="badd8462-e066-4d77-bbbe-a3fe6890233c" data-type="ast.Node" id="j_74" class="joint-cell joint-type-ast joint-type-ast-node joint-element joint-theme-default" transform="translate(80,50)"><rect id="v-232" rx="5" ry="5" stroke="none" fill="#232323" width="120" height="30"/><text id="v-233" font-size="10" xml:space="preserve" y="0.8em" fill="white" font-family="'Helvetica Neue Light','Helvetica Neue','Source Sans Pro',sans-serif" letter-spacing="1px" transform="matrix(1,0,0,1,15,10.8)"><tspan dy="0" class="v-line">function sum(a,b)</tspan></text><path id="v-234" stroke="#666" d="M 0 0 0 10 M -5 10 5 10" visibility="hidden" pointer-events="none" transform="matrix(1,0,0,1,60,30)"/></g><g model-id="0ecb2b85-e14f-4e8e-9762-868cc73a48bd" data-type="ast.Node" id="j_76" class="joint-cell joint-type-ast joint-type-ast-node joint-element joint-theme-default" transform="translate(160,100)"><rect id="v-237" rx="5" ry="5" stroke="none" fill="#232323" width="120" height="30"/><text id="v-238" font-size="10" xml:space="preserve" y="0.8em" fill="white" font-family="'Helvetica Neue Light','Helvetica Neue','Source Sans Pro',sans-serif" letter-spacing="1px" transform="matrix(1,0,0,1,19.1,10.8)"><tspan dy="0" class="v-line">BlockStatement</tspan></text><path id="v-239" stroke="#666" d="M 0 0 0 10 M -5 10 5 10" visibility="hidden" pointer-events="none" transform="matrix(1,0,0,1,60,30)"/></g><g model-id="dbeca930-38fb-4c96-87ed-cb663f3cbf24" data-type="ast.Node" id="j_78" class="joint-cell joint-type-ast joint-type-ast-node joint-element joint-theme-default" transform="translate(240,150)"><rect id="v-242" rx="5" ry="5" stroke="none" fill="#232323" width="120" height="30"/><text id="v-243" font-size="10" xml:space="preserve" y="0.8em" fill="white" font-family="'Helvetica Neue Light','Helvetica Neue','Source Sans Pro',sans-serif" letter-spacing="1px" transform="matrix(1,0,0,1,16.4,10.8)"><tspan dy="0" class="v-line">ReturnStatement</tspan></text><path id="v-244" stroke="#666" d="M 0 0 0 10 M -5 10 5 10" visibility="hidden" pointer-events="none" transform="matrix(1,0,0,1,60,30)"/></g><g model-id="ce57783d-9c7e-4e3f-a595-68dd4543c441" data-type="ast.Node" id="j_80" class="joint-cell joint-type-ast joint-type-ast-node joint-element joint-theme-default" transform="translate(320,200)"><rect id="v-247" rx="5" ry="5" stroke="none" fill="#fcbc2a" width="120" height="30"/><text id="v-248" font-size="10" xml:space="preserve" y="0.8em" fill="white" font-family="'Helvetica Neue Light','Helvetica Neue','Source Sans Pro',sans-serif" letter-spacing="1px" transform="matrix(1,0,0,1,57,10.8)"><tspan dy="0" class="v-line">+</tspan></text><path id="v-249" stroke="#666" d="M 0 0 0 10 M -5 10 5 10" visibility="hidden" pointer-events="none" transform="matrix(1,0,0,1,60,30)"/></g><g model-id="df9c88aa-010c-40f1-859b-a3117f94b884" data-type="ast.Node" id="j_82" class="joint-cell joint-type-ast joint-type-ast-node joint-element joint-theme-default" transform="translate(400,250)"><rect id="v-252" rx="5" ry="5" stroke="none" fill="#ff5246" width="120" height="30"/><text id="v-253" font-size="10" xml:space="preserve" y="0.8em" fill="white" font-family="'Helvetica Neue Light','Helvetica Neue','Source Sans Pro',sans-serif" letter-spacing="1px" transform="matrix(1,0,0,1,57.4,10.8)"><tspan dy="0" class="v-line">a</tspan></text><path id="v-254" stroke="#666" d="M 0 0 0 10 M -5 10 5 10" visibility="hidden" pointer-events="none" transform="matrix(1,0,0,1,60,30)"/></g><g model-id="3569bd5d-11bd-4c57-bc23-b3fce30578b7" data-type="ast.Node" id="j_84" class="joint-cell joint-type-ast joint-type-ast-node joint-element joint-theme-default" transform="translate(400,300)"><rect id="v-257" rx="5" ry="5" stroke="none" fill="#ff5246" width="120" height="30"/><text id="v-258" font-size="10" xml:space="preserve" y="0.8em" fill="white" font-family="'Helvetica Neue Light','Helvetica Neue','Source Sans Pro',sans-serif" letter-spacing="1px" transform="matrix(1,0,0,1,57.1,10.8)"><tspan dy="0" class="v-line">b</tspan></text><path id="v-259" stroke="#666" d="M 0 0 0 10 M -5 10 5 10" visibility="hidden" pointer-events="none" transform="matrix(1,0,0,1,60,30)"/></g><g model-id="e90075ed-c6d2-472b-879b-57eff2970455" data-type="ast.Node" id="j_86" class="joint-cell joint-type-ast joint-type-ast-node joint-element joint-theme-default" transform="translate(80,350)"><rect id="v-262" rx="5" ry="5" stroke="none" fill="#232323" width="120" height="30"/><text id="v-263" font-size="10" xml:space="preserve" y="0.8em" fill="white" font-family="'Helvetica Neue Light','Helvetica Neue','Source Sans Pro',sans-serif" letter-spacing="1px" transform="matrix(1,0,0,1,7.1,5.8)"><tspan dy="0" class="v-line">ExpressionStatemen</tspan><tspan dy="1em" x="0" class="v-line">t</tspan></text><path id="v-264" stroke="#666" d="M 0 0 0 10 M -5 10 5 10" visibility="hidden" pointer-events="none" transform="matrix(1,0,0,1,60,30)"/></g><g model-id="3207bfb5-5416-4b9b-b030-67e6d5e0a9e6" data-type="ast.Node" id="j_88" class="joint-cell joint-type-ast joint-type-ast-node joint-element joint-theme-default" transform="translate(160,400)"><rect id="v-267" rx="5" ry="5" stroke="none" fill="#232323" width="120" height="30"/><text id="v-268" font-size="10" xml:space="preserve" y="0.8em" fill="white" font-family="'Helvetica Neue Light','Helvetica Neue','Source Sans Pro',sans-serif" letter-spacing="1px" transform="matrix(1,0,0,1,21.9,10.8)"><tspan dy="0" class="v-line">CallExpression</tspan></text><path id="v-269" stroke="#666" d="M 0 0 0 10 M -5 10 5 10" visibility="hidden" pointer-events="none" transform="matrix(1,0,0,1,60,30)"/></g><g model-id="e1525daf-8e2f-4a9b-97c2-06d46959859b" data-type="ast.Node" id="j_90" class="joint-cell joint-type-ast joint-type-ast-node joint-element joint-theme-default" transform="translate(240,450)"><rect id="v-272" rx="5" ry="5" stroke="none" fill="#ff5246" width="120" height="30"/><text id="v-273" font-size="10" xml:space="preserve" y="0.8em" fill="white" font-family="'Helvetica Neue Light','Helvetica Neue','Source Sans Pro',sans-serif" letter-spacing="1px" transform="matrix(1,0,0,1,49.7,10.8)"><tspan dy="0" class="v-line">sum</tspan></text><path id="v-274" stroke="#666" d="M 0 0 0 10 M -5 10 5 10" visibility="hidden" pointer-events="none" transform="matrix(1,0,0,1,60,30)"/></g><g model-id="8191e72a-ca9a-4cfb-83ca-d3615325fcdf" data-type="ast.Node" id="j_92" class="joint-cell joint-type-ast joint-type-ast-node joint-element joint-theme-default" transform="translate(240,500)"><rect id="v-277" rx="5" ry="5" stroke="none" fill="#63c1f1" width="120" height="30"/><text id="v-278" font-size="10" xml:space="preserve" y="0.8em" fill="white" font-family="'Helvetica Neue Light','Helvetica Neue','Source Sans Pro',sans-serif" letter-spacing="1px" transform="matrix(1,0,0,1,33,10.8)"><tspan dy="0" class="v-line">arguments</tspan></text><path id="v-279" stroke="#666" d="M 0 0 0 10 M -5 10 5 10" visibility="hidden" pointer-events="none" transform="matrix(1,0,0,1,60,30)"/></g><g model-id="2d956c1a-b245-4965-981e-a4f68fb5dafb" data-type="ast.Node" id="j_94" class="joint-cell joint-type-ast joint-type-ast-node joint-element joint-theme-default" transform="translate(320,550)"><rect id="v-282" rx="5" ry="5" stroke="none" fill="#77c63d" width="120" height="30"/><text id="v-283" font-size="10" xml:space="preserve" y="0.8em" fill="white" font-family="'Helvetica Neue Light','Helvetica Neue','Source Sans Pro',sans-serif" letter-spacing="1px" transform="matrix(1,0,0,1,57.2,10.8)"><tspan dy="0" class="v-line">1</tspan></text><path id="v-284" stroke="#666" d="M 0 0 0 10 M -5 10 5 10" visibility="hidden" pointer-events="none" transform="matrix(1,0,0,1,60,30)"/></g><g model-id="7e13efb4-36d0-4c55-9472-d21faec86686" data-type="ast.Node" id="j_96" class="joint-cell joint-type-ast joint-type-ast-node joint-element joint-theme-default" transform="translate(320,600)"><rect id="v-287" rx="5" ry="5" stroke="none" fill="#77c63d" width="120" height="30"/><text id="v-288" font-size="10" xml:space="preserve" y="0.8em" fill="white" font-family="'Helvetica Neue Light','Helvetica Neue','Source Sans Pro',sans-serif" letter-spacing="1px" transform="matrix(1,0,0,1,57.2,10.8)"><tspan dy="0" class="v-line">2</tspan></text><path id="v-289" stroke="#666" d="M 0 0 0 10 M -5 10 5 10" visibility="hidden" pointer-events="none" transform="matrix(1,0,0,1,60,30)"/></g><g model-id="30b315c5-c3ca-42f4-ab50-7e01ebcd0c78" data-type="ast.Link" id="j_75" class="joint-cell joint-type-ast joint-type-ast-link joint-link joint-theme-default"><path class="connection" id="v-292" fill="none" stroke="#666" pointer-events="none" marker-end="url(#v-2-857093843)" d="M 60 30 L 60 65 L 80 65"/></g><g model-id="e3cd85df-b093-4d3a-985b-aa17b3292ef8" data-type="ast.Link" id="j_77" class="joint-cell joint-type-ast joint-type-ast-link joint-link joint-theme-default"><path class="connection" id="v-293" fill="none" stroke="#666" pointer-events="none" marker-end="url(#v-2-857093843)" d="M 140 80 L 140 115 L 160 115"/></g><g model-id="9a7be262-301b-4a7c-9eb2-c71f30cfae37" data-type="ast.Link" id="j_79" class="joint-cell joint-type-ast joint-type-ast-link joint-link joint-theme-default"><path class="connection" id="v-294" fill="none" stroke="#666" pointer-events="none" marker-end="url(#v-2-857093843)" d="M 220 130 L 220 165 L 240 165"/></g><g model-id="c5ad4d67-ce64-4008-a946-c68d2a972fd9" data-type="ast.Link" id="j_81" class="joint-cell joint-type-ast joint-type-ast-link joint-link joint-theme-default"><path class="connection" id="v-295" fill="none" stroke="#666" pointer-events="none" marker-end="url(#v-2-857093843)" d="M 300 180 L 300 215 L 320 215"/></g><g model-id="89fcbcd9-c97b-4cda-884d-2d506ca555b7" data-type="ast.Link" id="j_83" class="joint-cell joint-type-ast joint-type-ast-link joint-link joint-theme-default"><path class="connection" id="v-296" fill="none" stroke="#666" pointer-events="none" marker-end="url(#v-2-857093843)" d="M 380 230 L 380 265 L 400 265"/></g><g model-id="51b8f2bf-435f-4d19-8f75-051a7f49737c" data-type="ast.Link" id="j_85" class="joint-cell joint-type-ast joint-type-ast-link joint-link joint-theme-default"><path class="connection" id="v-297" fill="none" stroke="#666" pointer-events="none" marker-end="url(#v-2-857093843)" d="M 380 230 L 380 315 L 400 315"/></g><g model-id="846163d4-bb05-4805-bb40-abc311a2c983" data-type="ast.Link" id="j_87" class="joint-cell joint-type-ast joint-type-ast-link joint-link joint-theme-default"><path class="connection" id="v-298" fill="none" stroke="#666" pointer-events="none" marker-end="url(#v-2-857093843)" d="M 60 30 L 60 365 L 80 365"/></g><g model-id="2e5c545b-60c1-4f24-b6cd-80168b8c8c45" data-type="ast.Link" id="j_89" class="joint-cell joint-type-ast joint-type-ast-link joint-link joint-theme-default"><path class="connection" id="v-299" fill="none" stroke="#666" pointer-events="none" marker-end="url(#v-2-857093843)" d="M 140 380 L 140 415 L 160 415"/></g><g model-id="f0f6e639-192a-4b2f-9058-4eee1ff379af" data-type="ast.Link" id="j_91" class="joint-cell joint-type-ast joint-type-ast-link joint-link joint-theme-default"><path class="connection" id="v-300" fill="none" stroke="#666" pointer-events="none" marker-end="url(#v-2-857093843)" d="M 220 430 L 220 465 L 240 465"/></g><g model-id="e419a011-5f08-47d2-ae46-1aac63fc9762" data-type="ast.Link" id="j_93" class="joint-cell joint-type-ast joint-type-ast-link joint-link joint-theme-default"><path class="connection" id="v-301" fill="none" stroke="#666" pointer-events="none" marker-end="url(#v-2-857093843)" d="M 220 430 L 220 515 L 240 515"/></g><g model-id="b03742ab-c92a-4d36-b8c5-9332d2ba23c3" data-type="ast.Link" id="j_95" class="joint-cell joint-type-ast joint-type-ast-link joint-link joint-theme-default"><path class="connection" id="v-302" fill="none" stroke="#666" pointer-events="none" marker-end="url(#v-2-857093843)" d="M 300 530 L 300 565 L 320 565"/></g><g model-id="a0c54a2b-e5c3-47f3-a12d-14b2f55100b8" data-type="ast.Link" id="j_97" class="joint-cell joint-type-ast joint-type-ast-link joint-link joint-theme-default"><path class="connection" id="v-303" fill="none" stroke="#666" pointer-events="none" marker-end="url(#v-2-857093843)" d="M 300 530 L 300 615 L 320 615"/></g></g><g class="joint-labels-layer joint-viewport"/><g class="joint-front-layer"/><g class="joint-tools-layer"/></g></svg>