<?xml version="1.0" standalone="no"?>
<!DOCTYPE svg PUBLIC "-//W3C//DTD SVG 20010904//EN"
 "http://www.w3.org/TR/2001/REC-SVG-20010904/DTD/svg10.dtd">
<svg version="1.0" xmlns="http://www.w3.org/2000/svg"
 width="256.000000pt" height="256.000000pt" viewBox="0 0 256.000000 256.000000"
 preserveAspectRatio="xMidYMid meet">
<metadata>
Created by potrace 1.14, written by Peter Selinger 2001-2017
</metadata>
<g transform="translate(0.000000,256.000000) scale(0.100000,-0.100000)"
fill="#000000" stroke="none">
<path d="M1290 2473 c-60 -10 -128 -49 -161 -92 -18 -24 -48 -50 -67 -58 -19
-8 -37 -25 -43 -41 -6 -15 -20 -37 -32 -50 -12 -13 -21 -26 -19 -28 1 -2 -4
-17 -12 -33 -13 -25 -28 -173 -30 -306 -1 -24 -6 -42 -15 -46 -11 -4 -10 -9 6
-25 11 -10 24 -37 28 -59 4 -22 4 -37 0 -33 -12 12 -45 -38 -45 -67 0 -15 -4
-24 -10 -20 -15 9 -12 -19 5 -41 13 -17 14 -17 15 -1 0 18 20 25 20 7 0 -5 5
-10 11 -10 7 0 8 14 4 39 -5 28 -2 46 9 63 17 25 38 165 41 265 2 53 6 67 28
89 14 14 29 39 32 55 8 37 19 37 41 0 14 -24 20 -27 35 -18 9 6 14 17 11 25
-3 9 -1 13 5 9 6 -4 19 5 29 20 9 15 26 36 36 47 10 11 18 23 18 28 0 4 8 8
18 8 15 0 15 2 2 10 -13 9 -12 12 5 26 15 12 38 14 100 11 44 -3 122 -6 174
-7 l95 -3 48 -48 c80 -80 83 -94 80 -319 -1 -107 -5 -208 -8 -224 -8 -38 12
-26 31 20 32 77 37 415 7 484 -15 36 -25 63 -28 80 -2 8 -7 16 -13 18 -5 2 -7
10 -5 17 3 8 -3 24 -14 35 -11 12 -18 29 -15 41 3 10 0 19 -6 19 -5 0 -8 7 -5
15 4 8 1 15 -4 15 -6 0 -17 6 -24 13 -24 23 -138 66 -173 66 -11 0 -35 3 -54
7 -23 5 -36 2 -42 -7 -6 -11 -14 -11 -42 -1 -18 7 -35 11 -38 11 -2 -1 -15 -4
-29 -6z"/>
<path d="M1131 1911 c-41 -39 -33 -57 23 -53 25 2 55 -2 71 -10 26 -14 25 -15
-36 -13 -56 2 -67 -1 -87 -23 -17 -17 -20 -28 -13 -35 6 -6 11 -7 11 -3 0 5 8
-2 18 -15 21 -25 56 -21 46 6 -5 13 0 15 35 9 37 -6 43 -4 48 15 3 11 9 21 13
21 13 0 32 -29 25 -40 -3 -5 2 -10 12 -11 14 0 14 -2 -4 -9 -13 -5 -23 -12
-23 -16 0 -3 7 -4 15 0 18 7 19 -3 2 -26 -14 -17 -14 -52 -2 -81 5 -11 1 -24
-9 -36 -20 -22 -21 -55 -2 -71 8 -6 13 -17 10 -23 -3 -9 10 -12 45 -11 92 3
104 15 76 71 -12 24 -20 30 -37 25 -14 -3 -19 -1 -14 6 4 7 13 12 21 12 25 0
30 119 7 180 -33 93 -34 94 -141 124 -29 9 -59 20 -66 26 -9 8 -21 2 -44 -19z
m259 -401 c0 -5 -2 -10 -4 -10 -3 0 -8 5 -11 10 -3 6 -1 10 4 10 6 0 11 -4 11
-10z"/>
<path d="M1496 1837 c-25 -32 -26 -36 -12 -63 8 -16 17 -37 20 -46 3 -10 15
-18 28 -18 l22 0 -22 16 c-12 8 -22 23 -21 32 0 14 3 13 16 -5 20 -29 47 -29
67 -1 16 23 14 24 31 -28 6 -18 36 -15 42 3 5 13 -24 45 -67 76 l-25 18 40 -6
c22 -3 50 -8 63 -11 28 -8 30 16 2 41 -14 12 -41 19 -89 22 -69 4 -69 4 -95
-30z"/>
<path d="M885 1730 c-9 -66 -1 -74 14 -14 8 30 9 50 3 56 -6 6 -13 -9 -17 -42z"/>
<path d="M1208 1743 c7 -3 16 -2 19 1 4 3 -2 6 -13 5 -11 0 -14 -3 -6 -6z"/>
<path d="M1437 1543 c-10 -9 -8 -43 2 -43 5 0 14 7 21 15 17 21 -4 48 -23 28z"/>
<path d="M1209 1454 c-16 -20 -17 -56 -2 -72 7 -7 13 -22 13 -32 0 -10 7 -21
16 -24 24 -9 36 -7 28 5 -7 12 36 2 46 -10 13 -15 54 -10 97 12 63 33 90 43
118 46 8 0 15 8 15 16 0 14 -3 14 -29 0 -17 -8 -36 -12 -44 -9 -8 3 -37 7 -63
9 -93 7 -124 16 -124 35 0 25 -54 44 -71 24z m177 -102 c-21 -2 -42 0 -47 5
-4 4 13 6 39 3 l47 -5 -39 -3z"/>
<path d="M1112 1381 c-11 -7 -11 -9 0 -14 9 -3 15 1 15 9 0 8 -1 14 -1 14 -1
0 -7 -4 -14 -9z"/>
<path d="M1104 1343 c3 -8 6 -17 6 -19 0 -10 18 -3 23 10 3 8 -2 16 -14 19
-15 4 -19 2 -15 -10z"/>
<path d="M1123 1303 c-7 -3 -13 -12 -13 -21 0 -15 -2 -15 -11 -2 -7 11 -8 5
-5 -22 4 -26 2 -38 -10 -42 -11 -4 -12 -10 -4 -25 5 -11 10 -28 10 -38 -1 -31
-59 46 -68 91 l-9 41 -15 -35 c-9 -19 -28 -61 -42 -93 -14 -32 -31 -55 -36
-52 -10 6 -147 -64 -180 -90 -8 -7 -41 -19 -73 -26 -35 -7 -62 -19 -67 -30 -6
-9 -41 -29 -79 -43 -111 -43 -181 -110 -211 -202 -7 -21 -21 -59 -30 -84 -45
-113 -56 -196 -24 -169 18 15 18 -1 -1 -25 -8 -11 -15 -28 -15 -39 0 -10 -7
-25 -15 -33 -8 -9 -15 -22 -15 -29 0 -10 16 -4 48 18 45 30 53 32 154 35 l108
4 10 -27 c6 -15 8 -30 5 -35 -3 -5 1 -10 7 -13 7 -2 -6 -10 -29 -17 -47 -14
-78 -8 -69 15 3 8 1 15 -5 15 -7 0 -9 -10 -5 -25 3 -14 9 -35 12 -48 3 -16 1
-24 -8 -24 -7 0 -41 -4 -75 -8 -52 -6 -63 -5 -63 7 0 16 47 53 86 68 15 6 24
13 21 16 -3 3 -31 -6 -62 -20 -30 -15 -60 -24 -64 -21 -5 3 -12 -1 -14 -7 -3
-7 -3 2 0 20 3 20 1 32 -6 32 -6 0 -11 -13 -11 -29 0 -35 -35 -82 -48 -64 -6
9 -15 1 -33 -26 -19 -32 -28 -39 -46 -34 -30 7 -45 -26 -18 -41 10 -6 35 -26
55 -44 21 -17 40 -32 43 -32 3 0 7 15 9 32 2 27 10 36 41 51 37 17 63 15 52
-4 -4 -5 -2 -17 3 -26 6 -10 6 -26 2 -39 -7 -18 -5 -23 16 -27 17 -3 28 1 35
15 6 11 13 17 16 15 2 -3 -3 -19 -12 -36 l-16 -31 33 0 c25 0 29 3 20 12 -15
15 -15 45 0 54 7 5 9 2 5 -9 -7 -19 27 -62 43 -52 6 3 7 18 3 33 -6 24 -5 26
10 13 10 -7 17 -22 17 -33 0 -10 4 -17 8 -14 5 3 5 31 1 63 -4 32 -8 66 -8 76
-1 10 -9 17 -20 17 -10 0 -22 -8 -26 -17 -6 -14 -10 -9 -20 22 -7 22 -10 43
-8 48 2 4 31 7 63 7 l59 0 -15 -27 c-18 -35 -18 -53 1 -80 10 -15 24 -20 45
-18 42 3 48 12 51 73 3 52 16 69 26 32 3 -11 10 -17 15 -14 12 8 146 -62 181
-94 15 -14 27 -36 27 -49 0 -12 9 -27 19 -33 13 -6 227 -10 624 -10 l604 0 9
72 9 73 45 6 c25 3 59 13 75 22 17 9 37 17 45 17 11 0 11 3 2 12 -7 7 -12 17
-12 23 0 5 5 2 11 -8 8 -14 18 -16 45 -11 24 4 42 1 59 -10 14 -9 25 -12 25
-6 0 6 -7 13 -16 17 -8 3 -13 11 -10 18 2 7 -2 25 -10 41 -8 15 -13 41 -10 57
4 28 -21 127 -33 127 -3 0 -7 22 -8 49 -1 49 -38 151 -54 151 -5 0 -9 6 -9 13
0 7 -9 32 -20 55 -11 22 -20 45 -20 51 0 11 -89 91 -101 91 -5 0 -30 13 -56
29 -27 16 -68 32 -93 36 -25 4 -70 19 -100 34 -30 16 -73 31 -94 34 -21 3 -48
15 -60 25 -12 10 -36 25 -54 32 -48 19 -62 36 -62 76 0 19 -4 34 -10 34 -5 0
-10 -7 -10 -15 0 -9 -11 -37 -24 -63 -53 -105 -164 -194 -211 -169 -39 21
-150 109 -148 118 2 5 -2 9 -9 9 -6 0 -9 2 -6 5 3 3 30 -3 59 -15 64 -24 97
-25 141 -6 18 8 45 17 61 21 15 3 27 12 27 20 0 8 5 15 11 15 6 0 8 9 4 21 -9
29 -13 50 -14 75 -1 21 -3 21 -38 8 -21 -7 -54 -13 -73 -14 -47 0 -166 60
-164 84 1 12 -3 15 -16 11 -12 -4 -24 3 -36 19 -11 13 -25 22 -31 19z m357
-203 c0 -5 -5 -10 -11 -10 -5 0 -7 5 -4 10 3 6 8 10 11 10 2 0 4 -4 4 -10z
m-17 -27 c-7 -2 -19 -2 -25 0 -7 3 -2 5 12 5 14 0 19 -2 13 -5z m-193 -176 c0
-5 -4 -5 -10 -2 -5 3 -10 14 -10 23 0 15 2 15 10 2 5 -8 10 -19 10 -23z m60
-23 c0 -8 -4 -12 -10 -9 -5 3 -10 13 -10 21 0 8 5 12 10 9 6 -3 10 -13 10 -21z
m527 -40 c-3 -3 -12 -4 -19 -1 -8 3 -5 6 6 6 11 1 17 -2 13 -5z m-402 -14 c3
-6 -4 -10 -17 -10 -18 0 -20 2 -8 10 19 12 18 12 25 0z m749 -86 c3 -8 2 -12
-4 -9 -6 3 -10 10 -10 16 0 14 7 11 14 -7z m-591 -171 c-7 -3 -13 -11 -13 -19
0 -8 -5 -14 -11 -14 -5 0 -7 6 -3 13 15 26 27 37 33 31 3 -4 0 -9 -6 -11z
m607 -78 c13 -14 21 -27 19 -30 -3 -2 -17 9 -33 25 -15 17 -24 30 -19 30 5 0
20 -11 33 -25z m100 -37 c0 -6 -6 -5 -15 2 -8 7 -15 14 -15 16 0 2 7 1 15 -2
8 -4 15 -11 15 -16z m-775 -30 c6 -4 2 -8 -7 -8 -10 0 -18 7 -18 17 0 9 3 12
8 7 4 -5 12 -12 17 -16z m-167 -24 c-3 -14 -5 -12 -10 9 -3 19 -2 25 4 19 6
-6 8 -18 6 -28z m373 22 c19 -8 37 -17 41 -21 11 -12 -3 -34 -18 -28 -12 5
-19 -13 -15 -39 2 -12 -27 -10 -52 3 -22 12 -22 12 -3 -10 11 -12 14 -21 7
-21 -6 0 -14 7 -17 15 -4 8 -15 15 -26 15 -10 0 -17 4 -13 10 3 5 13 6 22 3
13 -5 15 -1 9 32 -5 27 -4 40 6 46 17 11 20 11 59 -5z m444 -10 c31 -11 41
-20 43 -40 2 -14 1 -26 -1 -26 -12 0 -107 53 -107 60 0 8 11 20 19 20 3 0 24
-7 46 -14z m-675 -16 c0 -5 -4 -10 -10 -10 -5 0 -10 5 -10 10 0 6 5 10 10 10
6 0 10 -4 10 -10z m-867 -16 c26 -9 47 -22 47 -29 0 -7 11 -29 25 -49 14 -20
25 -41 25 -45 0 -13 -90 -21 -135 -12 -22 4 -60 3 -83 -2 -55 -11 -77 4 -33
23 17 7 40 10 50 7 18 -4 19 -1 14 44 -6 49 6 79 31 79 7 0 33 -7 59 -16z
m1205 -35 c7 -12 11 -24 8 -27 -3 -3 -6 0 -6 8 0 9 -3 10 -13 2 -9 -8 -16 -6
-24 7 -7 11 -9 22 -6 25 12 12 28 6 41 -15z m490 -1 c-11 -32 -157 -86 -206
-76 -13 3 -9 8 16 20 18 9 40 14 49 11 11 -4 14 -3 9 5 -5 8 8 19 36 32 49 23
102 27 96 8z m-1524 -48 c4 -4 -3 -16 -18 -25 -25 -16 -26 -16 -50 12 -14 15
-26 31 -26 34 0 9 83 -10 94 -21z m719 -7 c-2 -7 2 -13 7 -13 15 0 12 -50 -2
-51 -15 -1 -44 1 -70 4 -33 5 -31 17 3 18 l34 1 -27 11 c-17 6 -26 17 -25 29
1 16 8 18 42 16 25 -2 39 -8 38 -15z m-1032 -9 c-19 -8 -36 -12 -39 -9 -6 6
37 24 58 24 8 0 0 -6 -19 -15z m1233 -36 c-5 -7 -1 -9 9 -5 24 9 21 0 -3 -13
-28 -15 -43 -4 -30 21 6 11 15 17 21 14 5 -4 6 -11 3 -17z m77 -10 c-10 -28
-31 -35 -31 -10 0 22 8 32 26 32 10 0 11 -6 5 -22z m50 -74 c-19 -8 -39 -13
-45 -10 -14 5 32 25 59 25 13 0 9 -5 -14 -15z m-311 -31 c-11 -17 -11 -17 -6
0 3 10 6 24 7 30 0 9 2 9 5 0 3 -7 0 -20 -6 -30z m-1165 17 c3 -5 1 -10 -4
-10 -6 0 -11 5 -11 10 0 6 2 10 4 10 3 0 8 -4 11 -10z m-4 -53 c-10 -9 -11 -8
-5 6 3 10 9 15 12 12 3 -3 0 -11 -7 -18z m834 -17 c3 -5 -1 -10 -10 -10 -9 0
-13 5 -10 10 3 6 8 10 10 10 2 0 7 -4 10 -10z m-110 -48 c-6 -7 -35 18 -35 31
0 5 9 2 20 -8 11 -10 18 -20 15 -23z"/>
<path d="M1721 397 c23 -22 39 -25 39 -8 0 7 -44 31 -57 31 -3 0 5 -10 18 -23z"/>
<path d="M1706 377 c3 -10 9 -15 12 -12 3 3 0 11 -7 18 -10 9 -11 8 -5 -6z"/>
<path d="M1544 1169 c-3 -6 -15 -9 -25 -6 -15 4 -19 0 -19 -24 0 -27 2 -29 20
-19 25 13 26 21 3 14 -16 -5 -16 -4 0 9 11 9 25 13 32 11 7 -3 16 -1 20 5 4 7
0 8 -11 4 -12 -4 -15 -3 -10 5 4 7 5 12 2 12 -3 0 -8 -5 -12 -11z"/>
<path d="M300 330 c-9 -6 -10 -10 -3 -10 6 0 15 5 18 10 8 12 4 12 -15 0z"/>
<path d="M226 293 c-6 -14 -5 -15 5 -6 7 7 10 15 7 18 -3 3 -9 -2 -12 -12z"/>
<path d="M630 91 c-5 -11 -10 -22 -10 -25 0 -9 82 -66 94 -66 6 0 -7 12 -28
26 -32 22 -37 30 -34 55 5 33 -6 38 -22 10z"/>
</g>
</svg>
